<?xml version="1.0" encoding="UTF-8"?>
<svg id="Layer_1" data-name="Layer 1" xmlns="http://www.w3.org/2000/svg" viewBox="0 0 330.59 330.57">
  <defs>
    <style>
      .cls-1 {
        fill: #fff;
        fill-rule: evenodd;
      }

      .cls-2 {
        fill: #0a66c2;
      }
    </style>
  </defs>
  <path class="cls-2" d="M306.09.02H24.39C11.08-.13.16,10.54,0,23.85v282.87c.16,13.32,11.07,24,24.39,23.85h281.7c13.35.17,24.31-10.51,24.49-23.85V23.83c-.19-13.34-11.15-24-24.49-23.83"/>
  <path class="cls-1" d="M127.72,144.1c41.82-14.42,48.94-51.97,43.6-86.49,0-1.25,1.07-2.14,2.14-1.78,40.04,19.58,85.07,62.29,85.07,126.36,0,49.12-38.09,92.54-93.43,92.54-49.09,2.23-90.7-35.76-92.94-84.85-1.48-32.52,14.92-63.25,42.75-80.13,1.07-.71,2.49,0,2.49,1.25.53,6.58,2.31,23.14,9.61,33.1h.71Z"/>
</svg>